<svg xmlns="http://www.w3.org/2000/svg" viewBox="0 0 32 40" fill="none">
  <defs>
    <linearGradient id="fl" x1="16" y1="0" x2="16" y2="40" gradientUnits="userSpaceOnUse">
      <stop offset="0%" stop-color="#FFD700"/>
      <stop offset="40%" stop-color="#FFA500"/>
      <stop offset="100%" stop-color="#FF4500"/>
    </linearGradient>
    <linearGradient id="fi" x1="16" y1="10" x2="16" y2="38" gradientUnits="userSpaceOnUse">
      <stop offset="0%" stop-color="#FFE066"/>
      <stop offset="50%" stop-color="#FFB347"/>
      <stop offset="100%" stop-color="#FF6B2C"/>
    </linearGradient>
  </defs>
  <!-- Flame -->
  <path d="M16 0C16 0 26 9 28 19C30 29 24 38 16 40C8 38 2 29 4 19C6 9 16 0 16 0Z" fill="url(#fl)"/>
  <path d="M22 8C22 8 27 15 26 23C25 30 20 35 16 37C12 35 7 30 6 23C5 15 10 8 10 8C10 8 14 14 16 11C18 8 22 8 22 8Z" fill="url(#fi)" opacity="0.7"/>
  <!-- Lock shackle -->
  <path d="M12 22V19C12 16.2 13.8 14 16 14C18.2 14 20 16.2 20 19V22" fill="none" stroke="white" stroke-width="2" stroke-linecap="round"/>
  <!-- Lock body -->
  <rect x="10" y="22" width="12" height="10" rx="2" fill="white"/>
  <!-- Keyhole -->
  <circle cx="16" cy="26" r="1.5" fill="#FF8C00"/>
  <rect x="15.25" y="26" width="1.5" height="2.5" rx="0.75" fill="#FF8C00"/>
</svg>
